<svg xmlns="http://www.w3.org/2000/svg" viewBox="0 0 651.97 346.07"><path fill="currentColor" d="M100.89 228.91V115h34.71l40.14 64v-64h32.54v113.91h-34.71l-40.14-65.1v65.1zm126.92 0V115h33.63v86.78h26v27.13zm72.69 0L317.86 115h32.54l20.6 67.25L390.53 115h33.63l16.29 113.91H407.9l-7.61-61.85-18.44 61.85h-21.68l-18.45-61.85-8.72 61.85zm151.87 0V115h34.71v45.56L519.63 115h39l-44.43 55.33 45.57 58.58h-42.32l-30.37-46.66v46.66zM325.44 0C130.19 0 0 69.44 0 173.57c0 103.06 130.19 172.5 325.44 172.5 196.34 0 326.53-69.44 326.53-172.5C652 69.44 521.78 0 325.44 0m0 330.88C142.1 330.88 19.52 268 19.52 173.57c0-95.47 122.58-158.38 305.92-158.38 184.43 0 307 62.91 307 158.38 0 94.38-122.59 157.31-307 157.31m0-300.5C153 30.38 38 87.88 38 173.57s115 143.2 287.48 143.2 287.49-57.49 287.49-143.2S497.93 30.38 325.44 30.38m0 283.13c-170.31 0-284.22-56.4-284.22-139.94S155.13 33.63 325.44 33.63 609.68 90 609.68 173.57 495.77 313.51 325.44 313.51"/></svg>