<svg width="11" height="13" fill="none" xmlns="http://www.w3.org/2000/svg"><path fill="#2C5697" d="M4.472 0a.496.496 0 00-.435.246.496.496 0 000 .508c.09.152.256.25.435.246h.497v1.024C2.189 2.28 0 4.637 0 7.5 0 10.531 2.453 13 5.465 13c3.013 0 5.466-2.469 5.466-5.5 0-2.863-2.19-5.219-4.969-5.476V1h.497a.496.496 0 00.435-.246.496.496 0 000-.508A.496.496 0 006.459 0H4.472zm4.964 1.992a.499.499 0 00-.462.317.496.496 0 00.113.543l1.056 1.062c.128.133.31.184.485.14a.505.505 0 00.357-.359.507.507 0 00-.136-.484L9.793 2.15a.509.509 0 00-.357-.157zM5.466 3c2.476 0 4.471 2.008 4.471 4.5S7.942 12 5.465 12C2.99 12 .994 9.992.994 7.5S2.989 3 5.465 3zM3.47 4.992a.498.498 0 00-.458.317.49.49 0 00.117.543l1.987 2a.493.493 0 00.838-.22.5.5 0 00-.14-.483l-1.987-2a.495.495 0 00-.357-.157z"/></svg>