<svg width="auto" height="auto" viewBox="0 0 16 17" fill="none" xmlns="http://www.w3.org/2000/svg"><g clip-path="url(#clip0)" fill="#002647"><path d="M15.984 4.965c-.037-.897-.175-1.514-.372-2.049a4.149 4.149 0 00-.925-1.497 3.924 3.924 0 00-1.416-.974c-.51-.207-1.09-.353-1.94-.392C10.473.01 10.201 0 8.03 0 5.857 0 5.585.01 4.732.05c-.85.04-1.434.184-1.94.392a3.89 3.89 0 00-1.42.977A4.188 4.188 0 00.45 2.913C.253 3.451.116 4.065.078 4.962c-.04.904-.05 1.191-.05 3.484s.01 2.58.047 3.48c.037.898.175 1.515.372 2.05.203.567.519 1.075.925 1.497.4.43.885.763 1.416.974.51.208 1.09.353 1.941.392.853.04 1.125.05 3.298.05 2.172 0 2.444-.01 3.297-.05.85-.04 1.435-.184 1.941-.392 1.075-.439 1.925-1.336 2.341-2.471.197-.538.335-1.152.372-2.05.038-.9.047-1.187.047-3.48s-.003-2.58-.04-3.48zm-1.44 6.896c-.035.825-.166 1.27-.276 1.567a2.732 2.732 0 01-1.519 1.603c-.281.116-.706.255-1.484.29-.844.04-1.097.05-3.232.05-2.135 0-2.391-.01-3.232-.05-.782-.035-1.203-.174-1.485-.29a2.455 2.455 0 01-.919-.63 2.645 2.645 0 01-.597-.97c-.11-.297-.24-.745-.275-1.567-.037-.89-.047-1.158-.047-3.411 0-2.254.01-2.524.047-3.412.035-.825.166-1.27.275-1.567.129-.366.332-.7.6-.97.26-.28.572-.495.92-.63.28-.115.706-.254 1.484-.29.844-.04 1.097-.05 3.232-.05 2.138 0 2.391.01 3.232.05.781.036 1.203.175 1.484.29.347.135.663.35.92.63.265.274.468.604.596.97.11.297.241.746.275 1.567.038.891.047 1.158.047 3.412 0 2.253-.009 2.517-.046 3.408z"/><path d="M8.03 4.108c-2.27 0-4.11 1.943-4.11 4.338 0 2.396 1.84 4.339 4.11 4.339 2.269 0 4.11-1.944 4.11-4.339 0-2.395-1.841-4.338-4.11-4.338zm0 7.153c-1.472 0-2.666-1.26-2.666-2.815 0-1.554 1.194-2.814 2.666-2.814s2.666 1.26 2.666 2.814-1.194 2.815-2.666 2.815zm5.232-7.325c0 .56-.43 1.013-.96 1.013s-.96-.454-.96-1.013c0-.56.43-1.013.96-1.013s.96.453.96 1.013z"/></g><defs><clipPath id="clip0"><path fill="#fff" d="M0 0h16v16.889H0z"/></clipPath></defs></svg>