<svg width="12" height="12" fill="none" xmlns="http://www.w3.org/2000/svg"><g clip-path="url(#clip0)"><path d="M2.445 7.977a12.73 12.73 0 004.235 3.317c.619.293 1.447.641 2.37.701.057.003.111.005.169.005.619 0 1.116-.214 1.521-.654a.052.052 0 00.01-.012c.145-.174.309-.331.48-.498.117-.112.236-.229.35-.348.53-.552.53-1.253-.004-1.788L10.08 7.206c-.253-.264-.557-.403-.875-.403-.318 0-.624.14-.885.4l-.89.89a4.732 4.732 0 00-.246-.129c-.1-.05-.192-.097-.274-.149C6.1 7.3 5.363 6.629 4.66 5.766c-.356-.45-.595-.828-.761-1.213.234-.212.452-.433.664-.65.074-.076.151-.153.229-.23.268-.269.412-.58.412-.896 0-.315-.141-.626-.412-.895l-.741-.74c-.087-.088-.17-.172-.254-.26a13.64 13.64 0 00-.505-.5C3.037.133 2.736 0 2.418 0c-.316 0-.62.132-.885.385l-.93.93a1.91 1.91 0 00-.57 1.224c-.047.594.062 1.226.346 1.989.435 1.181 1.092 2.278 2.066 3.449zM.64 2.59c.03-.33.157-.607.395-.845L1.96.82c.145-.14.304-.212.458-.212.152 0 .306.072.447.217.167.154.324.315.493.487l.258.263.741.741c.155.155.234.311.234.465 0 .155-.08.311-.234.465l-.23.234c-.232.234-.448.455-.687.667l-.013.012c-.206.206-.174.403-.124.552l.008.02c.191.46.457.898.872 1.42.746.92 1.532 1.633 2.397 2.183.107.07.222.124.329.179.099.05.191.097.273.15.01.004.017.009.027.014a.52.52 0 00.242.062.527.527 0 00.37-.169l.93-.93c.144-.144.301-.221.455-.221.19 0 .343.117.44.221l1.5 1.497c.298.298.295.622-.008.937a8.383 8.383 0 01-.33.331c-.175.17-.356.343-.52.54-.286.308-.627.452-1.067.452-.042 0-.087-.002-.13-.005-.815-.052-1.573-.37-2.143-.641a12.095 12.095 0 01-4.03-3.158C1.99 6.477 1.366 5.438.953 4.324.697 3.64.6 3.091.64 2.591z" fill="#fff"/></g><defs><clipPath id="clip0"><path fill="#fff" d="M0 0h12v12H0z"/></clipPath></defs></svg>