<svg width="auto" height="auto" viewBox="0 0 18 18" fill="none" xmlns="http://www.w3.org/2000/svg"><path d="M5.864 15.758c6.368 0 9.85-5.276 9.85-9.851 0-.15-.002-.3-.009-.448a7.044 7.044 0 001.727-1.792 6.907 6.907 0 01-1.988.545 3.475 3.475 0 001.522-1.915 6.944 6.944 0 01-2.198.84 3.463 3.463 0 00-5.9 3.157A9.83 9.83 0 011.73 2.677 3.46 3.46 0 002.803 7.3a3.435 3.435 0 01-1.568-.433v.044a3.463 3.463 0 002.777 3.394 3.473 3.473 0 01-1.563.06 3.466 3.466 0 003.234 2.404 6.946 6.946 0 01-4.3 1.482c-.28 0-.555-.016-.826-.048a9.8 9.8 0 005.307 1.556z" fill="#002647"/></svg>