<svg width="20" height="20" fill="none" xmlns="http://www.w3.org/2000/svg"><path d="M10.776.046a.556.556 0 00-.602.106L4.452 5.555H.556A.555.555 0 000 6.111v7.778c0 .307.248.555.556.555h3.896l5.722 5.404a.555.555 0 00.937-.404V.555a.556.556 0 00-.335-.51zm2.894 6.84l-.792.792c-.183.182-.231.477-.079.686.336.459.535 1.025.535 1.636s-.199 1.177-.535 1.636c-.152.209-.104.504.079.686l.792.792a.565.565 0 00.848-.067A4.975 4.975 0 0015.556 10a4.975 4.975 0 00-1.038-3.047.565.565 0 00-.848-.067zm3.956-3.141a.555.555 0 00-.803-.012l-.787.786a.56.56 0 00-.014.767A7.191 7.191 0 0117.778 10c0 1.8-.662 3.448-1.756 4.714a.56.56 0 00.014.767l.787.786a.555.555 0 00.803-.012A9.406 9.406 0 0020 10a9.406 9.406 0 00-2.374-6.255z" fill="#2C5697"/></svg>